<svg width="24" height="24" viewBox="0 0 24 24" fill="none" xmlns="http://www.w3.org/2000/svg" focusable="false"><path fill-rule="evenodd" clip-rule="evenodd" d="M13 2.99998H16.16C17.3127 2.99975 18.43 3.39777 19.3229 4.12668C20.2158 4.85559 20.8295 5.87062 21.06 6.99999L21.94 11.41C22.0273 11.8452 22.0169 12.2944 21.9096 12.7251C21.8024 13.1558 21.6008 13.5573 21.3196 13.9008C21.0384 14.2442 20.6844 14.5209 20.2833 14.711C19.8822 14.9011 19.4439 14.9998 19 15H16.56L16.85 15.62C17.1193 16.1964 17.2388 16.8316 17.1973 17.4665C17.1558 18.1014 16.9547 18.7156 16.6127 19.2521C16.2706 19.7886 15.7987 20.2301 15.2406 20.5356C14.6825 20.8412 14.0563 21.0009 13.42 21C13.2681 21.0008 13.118 20.967 12.9811 20.9012C12.8443 20.8353 12.7242 20.7392 12.63 20.62L9 15.7C8.35089 14.8345 8 13.7818 8 12.7V7.99999C8 6.6739 8.52678 5.40213 9.46447 4.46445C10.4021 3.52677 11.6739 2.99998 13 2.99998ZM13.8732 18.9307L10.59 14.48C10.2082 13.9649 10.0014 13.3411 10 12.7V7.99999C10 7.20434 10.3161 6.44127 10.8787 5.87866C11.4413 5.31606 12.2044 4.99998 13 4.99998H16.16C16.853 5.00031 17.5245 5.24054 18.0604 5.67987C18.5964 6.1192 18.9637 6.73052 19.1 7.40999L20 11.79C20.0286 11.9353 20.0246 12.0851 19.9883 12.2286C19.952 12.3721 19.8843 12.5058 19.79 12.62C19.6958 12.7392 19.5757 12.8353 19.4389 12.9012C19.302 12.967 19.1519 13.0008 19 13H15C14.8318 13.0013 14.6666 13.0451 14.5197 13.1273C14.3729 13.2094 14.2492 13.3273 14.16 13.47C14.0629 13.6167 14.0063 13.7864 13.9957 13.9619C13.9852 14.1375 14.0212 14.3127 14.1 14.47L15 16.46C15.1095 16.6967 15.1659 16.9544 15.1653 17.2152C15.1648 17.476 15.1072 17.7335 14.9967 17.9697C14.8862 18.206 14.7255 18.4152 14.5257 18.5828C14.3347 18.743 14.1124 18.8615 13.8732 18.9307ZM4 3H6C6.26522 3 6.51957 3.10536 6.70711 3.29289C6.89464 3.48043 7 3.73478 7 4C7 4.26522 6.89464 4.51957 6.70711 4.70711C6.51957 4.89464 6.26522 5 6 5H4V13H6C6.26522 13 6.51957 13.1054 6.70711 13.2929C6.89464 13.4804 7 13.7348 7 14C7 14.2652 6.89464 14.5196 6.70711 14.7071C6.51957 14.8946 6.26522 15 6 15H4C3.46957 15 2.96086 14.7893 2.58579 14.4142C2.21071 14.0391 2 13.5304 2 13V5C2 4.46957 2.21071 3.96086 2.58579 3.58579C2.96086 3.21071 3.46957 3 4 3Z" fill="#9b9b9b"></path></svg>