<svg width="24" height="24" viewBox="0 0 24 24" fill="none" xmlns="http://www.w3.org/2000/svg" focusable="false"><path fill-rule="evenodd" clip-rule="evenodd" d="M13 21H16.16C17.3127 21.0002 18.43 20.6022 19.3229 19.8733C20.2158 19.1444 20.8295 18.1294 21.06 17L21.94 12.59C22.0273 12.1548 22.0169 11.7056 21.9096 11.2749C21.8024 10.8442 21.6008 10.4427 21.3196 10.0992C21.0384 9.75583 20.6844 9.4791 20.2833 9.28901C19.8822 9.09893 19.4439 9.00022 19 9.00001H16.56L16.85 8.38001C17.1193 7.80356 17.2388 7.16844 17.1973 6.53353C17.1558 5.89861 16.9547 5.28445 16.6127 4.74794C16.2706 4.21143 15.7987 3.76995 15.2406 3.4644C14.6825 3.15885 14.0563 2.99912 13.42 3.00001C13.2681 2.9992 13.118 3.03299 12.9811 3.09883C12.8443 3.16468 12.7242 3.26084 12.63 3.38001L9 8.30001C8.35089 9.1655 8 10.2182 8 11.3V16C8 17.3261 8.52678 18.5979 9.46447 19.5355C10.4021 20.4732 11.6739 21 13 21ZM13.8732 5.06927L10.59 9.52001C10.2082 10.0351 10.0014 10.6589 10 11.3V16C10 16.7957 10.3161 17.5587 10.8787 18.1213C11.4413 18.6839 12.2044 19 13 19H16.16C16.853 18.9997 17.5245 18.7595 18.0604 18.3201C18.5964 17.8808 18.9637 17.2695 19.1 16.59L20 12.21C20.0286 12.0647 20.0246 11.9149 19.9883 11.7714C19.952 11.6279 19.8843 11.4942 19.79 11.38C19.6958 11.2608 19.5757 11.1647 19.4389 11.0988C19.302 11.033 19.1519 10.9992 19 11H15C14.8318 10.9987 14.6666 10.9549 14.5197 10.8727C14.3729 10.7906 14.2492 10.6727 14.16 10.53C14.0629 10.3833 14.0063 10.2136 13.9957 10.0381C13.9852 9.8625 14.0212 9.68725 14.1 9.53001L15 7.54001C15.1095 7.30332 15.1659 7.04556 15.1653 6.78477C15.1648 6.52399 15.1072 6.26648 14.9967 6.03025C14.8862 5.79403 14.7255 5.58481 14.5257 5.41721C14.3347 5.257 14.1124 5.13854 13.8732 5.06927ZM4 21H6C6.26522 21 6.51957 20.8946 6.70711 20.7071C6.89464 20.5196 7 20.2652 7 20C7 19.7348 6.89464 19.4804 6.70711 19.2929C6.51957 19.1054 6.26522 19 6 19H4V11H6C6.26522 11 6.51957 10.8946 6.70711 10.7071C6.89464 10.5196 7 10.2652 7 10C7 9.73478 6.89464 9.48043 6.70711 9.29289C6.51957 9.10536 6.26522 9 6 9H4C3.46957 9 2.96086 9.21071 2.58579 9.58579C2.21071 9.96086 2 10.4696 2 11V19C2 19.5304 2.21071 20.0391 2.58579 20.4142C2.96086 20.7893 3.46957 21 4 21Z" fill="#3748a9"></path></svg>